<svg xmlns="http://www.w3.org/2000/svg" version="1.1" xmlns:xlink="http://www.w3.org/1999/xlink" xmlns:svgjs="http://svgjs.com/svgjs" width="512" height="512" x="0" y="0" viewBox="0 0 511.986 511.986" style="enable-background:new 0 0 512 512" xml:space="preserve" class=""><g><g xmlns="http://www.w3.org/2000/svg"><g clip-rule="evenodd" fill-rule="evenodd"><path d="m374.316 77.838c2.949 5.108 8.737 7.554 14.221 6.498l14.261-1.547 11.254 5.935c5.38 2.821 11.798 1.635 15.84-2.492l23.711-23.015c4.76-4.614 5.372-11.896 1.765-17.195l-20.435-30.132c-3.409-5.029-9.626-7.015-15.139-5.286l-37.224 10.647c-4.982 1.418-8.502 5.468-9.483 10.213l-6.216 26.031c-.831 3.478-.225 6.964 1.433 9.834l-.041.024z" fill="#c1b0b5" data-original="#c1b0b5" class=""></path><path d="m401.54 187.619c-19.801-21.717-39.602-43.434-59.402-65.151-7.944-8.66-20.842-10.062-30.373-3.849-10.117 6.52-20.234 13.041-30.351 19.56-12.058-2.309-24.116-4.618-36.174-6.927-6.519-1.252-12.926.302-17.977 3.817-30.395 21.013-60.79 42.026-91.184 63.038-7.206 5.016-10.765 13.318-10.063 21.48.382 9.866.765 19.732 1.147 29.598 1.053 27.156 2.076 23.668-9.814 48.094-4.422 9.084-8.843 18.168-13.264 27.252-4.524 9.279-2.503 20.461 4.997 27.557 28.335 29.876 36.811 44.857 70.11 76.224 7.475 7.075 18.349 8.325 27.025 3.907 14.276-7.264 28.552-14.53 42.828-21.794 11.44 1.596 22.88 3.193 34.319 4.788 10.178 1.422 19.749-3.841 24.277-12.437 12.35-20.266 24.7-40.532 37.049-60.798 3.471-5.686 4.258-12.257 2.72-18.236-9.374-37.021 19.113-44.99 27.834-57.275 11.727-16.522 16.089-25.222 30.247-50.408 5.341-9.506 3.425-21.114-3.951-28.44zm-92.701 25.025c0-12.261 9.939-22.2 22.2-22.2s22.2 9.939 22.2 22.2-9.939 22.2-22.2 22.2-22.2-9.939-22.2-22.2zm-98.792 6.145c13.752 0 24.9 11.148 24.9 24.9s-11.148 24.9-24.9 24.9-24.9-11.148-24.9-24.9c.001-13.753 11.148-24.9 24.9-24.9zm70.892 84.076c10.574 6.105 14.23 19.751 8.126 30.326l-10.8 18.706c-6.105 10.574-19.751 14.231-30.326 8.126-10.574-6.105-14.231-19.752-8.126-30.326l10.8-18.707c6.105-10.574 19.751-14.231 30.326-8.125z" fill="#c1b0b5" data-original="#c1b0b5" class=""></path><circle cx="210.047" cy="243.688" fill="#6d91ac" r="24.9" data-original="#6d91ac"></circle><path d="m280.939 302.865c-10.575-6.105-24.221-2.449-30.326 8.126l-10.8 18.707c-6.105 10.574-2.449 24.22 8.126 30.326 10.574 6.105 24.221 2.448 30.326-8.126l10.8-18.706c6.104-10.576 2.448-24.222-8.126-30.327z" fill="#6d91ac" data-original="#6d91ac"></path><circle cx="331.039" cy="212.644" fill="#6d91ac" r="22.2" data-original="#6d91ac"></circle><g fill="#c1b0b5"><path d="m447.081 378.066-14.261-1.547c-5.483-1.056-11.272 1.39-14.221 6.498l-6.054 10.485.041.023c-1.658 2.87-2.264 6.356-1.433 9.834l6.216 26.031c.981 4.745 4.502 8.795 9.484 10.213l37.223 10.648c5.513 1.729 11.731-.257 15.139-5.286l20.435-30.131c3.607-5.299 2.994-12.58-1.765-17.195l-23.712-23.015c-4.042-4.128-10.46-5.314-15.839-2.492z" fill="#c1b0b5" data-original="#c1b0b5" class=""></path><path d="m121.711 475.372c2.665-3.915 2.212-9.295-1.304-12.704l-17.519-17.004c-2.986-3.049-7.728-3.926-11.703-1.842l-8.315 4.385-10.537-1.143c-4.051-.78-8.328 1.027-10.507 4.801l-4.473 7.747.03.017c-1.225 2.121-1.672 4.696-1.058 7.266l4.592 19.233c.725 3.505 3.326 6.498 7.007 7.546l27.502 7.867c4.073 1.278 8.667-.19 11.186-3.906z" fill="#c1b0b5" data-original="#c1b0b5" class=""></path><path d="m54.124 172.48 28.368-16.947c5.033-2.836 7.84-8.729 6.507-14.655l-2.82-12.407 15.039-28.127c2.439-5.023 1.575-11.247-2.596-15.417l-8.561-8.562-.033.033c-2.343-2.344-5.553-3.832-9.128-3.929l-26.753-.733c-4.837-.28-9.66 2.072-12.319 6.517l-29.773 47.951c-3.097 4.878-2.787 11.398 1.188 15.992l23.816 27.538c4.184 4.855 11.376 6.148 17.065 2.746z" fill="#c1b0b5" data-original="#c1b0b5" class=""></path></g></g><g><path d="m414.21 220.956c7.355-13.09 5.114-29.597-5.433-40.24l-59.271-65.007c-11.186-12.194-29.354-14.492-43.159-5.495l-26.985 17.392-32.236-6.173c-8.977-1.723-18.063.203-25.549 5.412l-8.579 5.931c-4.543 3.141-5.68 9.369-2.539 13.912 3.14 4.543 9.368 5.682 13.912 2.539l8.605-5.948c3.048-2.122 6.733-2.903 10.383-2.204l36.174 6.928c2.524.486 5.138-.023 7.298-1.416l30.395-19.589c5.62-3.662 12.998-2.724 17.522 2.209l59.402 65.151c.111.122.226.241.343.358 4.354 4.323 5.291 11.085 2.282 16.441-2.345 4.17-4.421 7.89-6.307 11.268-9.545 17.099-13.901 24.902-23.378 38.254-1.43 2.014-4.473 4.49-7.694 7.112-11.309 9.205-30.236 24.611-21.671 58.439.929 3.613.371 7.355-1.575 10.544l-37.048 60.798c-.108.178-.212.359-.309.544-2.687 5.101-8.33 7.995-14.047 7.192l-34.318-4.788c-2.024-.278-4.094.063-5.918.992l-42.833 21.796c-5.144 2.617-11.417 1.711-15.629-2.275-19.669-18.527-30.604-31.343-42.183-44.911-7.908-9.268-16.087-18.852-27.527-30.915-.124-.131-.252-.259-.384-.383-4.354-4.119-5.512-10.513-2.877-15.916l14.798-30.4c10.086-20.662 10.441-22.291 9.533-43.582-.079-1.854-.166-3.886-.253-6.127l-1.147-29.597c-.006-.157-.016-.314-.029-.472-.419-4.87 1.808-9.627 5.786-12.396l8.573-5.927c4.543-3.141 5.68-9.369 2.539-13.912-3.141-4.542-9.369-5.682-13.912-2.539l-8.6 5.944c-9.79 6.814-15.266 18.402-14.334 30.291l1.14 29.383c.088 2.27.176 4.326.256 6.204.728 17.051.728 17.051-7.524 33.957l-14.806 30.414c-6.438 13.205-3.661 28.838 6.899 39 10.991 11.599 18.954 20.93 26.655 29.955 11.941 13.994 23.222 27.212 43.667 46.472 6.393 6.05 14.746 9.21 23.188 9.209 5.193 0 10.423-1.197 15.245-3.653l40.026-20.368 31.203 4.354c13.935 1.947 27.683-5.031 34.348-17.38l36.896-60.55c4.781-7.832 6.156-17.043 3.88-25.901-5.426-21.426 4.001-29.1 14.917-37.983 4.306-3.505 8.373-6.815 11.377-11.048 10.104-14.234 14.926-22.872 24.533-40.081 1.879-3.365 3.945-7.067 6.279-11.219z" fill="#000000" data-original="#000000" class=""></path><path d="m359.602 72.352 6.053 10.484c4.922 8.525 14.649 13.064 24.313 11.402l10.87-1.18 8.569 4.519c3.403 1.785 7.125 2.651 10.826 2.651 6.138 0 12.22-2.381 16.701-6.898l23.629-22.936c8.201-7.95 9.492-20.568 3.08-29.986l-20.433-30.13c-5.734-8.457-16.517-12.248-26.271-9.26l-37.105 10.614c-8.371 2.383-14.681 9.132-16.504 17.637l-6.186 25.903c-1.299 5.436-.625 11.08 1.891 16.034.162.389.352.772.567 1.146zm16.995-12.534 6.216-26.032c.023-.099.046-.197.066-.297.205-.99.95-2.199 2.441-2.624l37.223-10.647c.082-.023.163-.048.243-.072 1.175-.369 2.882-.1 3.87 1.356l20.444 30.147c.938 1.376.744 3.221-.463 4.391l-23.711 23.015c-.061.059-.12.118-.18.179-.859.876-2.493 1.449-4.031.644l-11.254-5.935c-1.442-.761-3.044-1.154-4.664-1.154-.359 0-.72.02-1.079.059l-14.262 1.548c-.272.029-.543.07-.812.122-1.212.23-2.813-.195-3.669-1.679l-5.569-9.646c-.133-.291-.28-.578-.443-.861-.312-.543-.628-1.417-.366-2.514z" fill="#000000" data-original="#000000" class=""></path><path d="m47.215 184.401c4.119 0 8.279-1.089 12.038-3.336l28.274-16.892c8.854-5.063 13.469-15.522 11.223-25.512l-1.992-8.767 13.279-24.835c.062-.114.12-.23.177-.347 4.368-8.994 2.552-19.788-4.521-26.858l-8.561-8.561c-.305-.305-.624-.585-.956-.842-4.134-3.714-9.414-5.827-15.004-5.979l-26.62-.73c-8.631-.416-16.78 3.878-21.259 11.297l-29.71 47.854c-5.467 8.656-4.607 20.1 2.097 27.845l23.804 27.524c4.591 5.328 11.11 8.139 17.731 8.139zm-26.718-52.836c.019-.028.036-.057.055-.086l29.772-47.951c.028-.046.058-.094.086-.141.74-1.238 1.986-1.673 2.973-1.673.063 0 .127.001.188.005.101.006.201.01.302.013l26.752.733h.001c1.128.031 1.89.563 2.33 1.003.228.229.465.443.712.646l7.884 7.884c1.169 1.168 1.208 2.755.726 3.86l-14.918 27.897c-1.136 2.123-1.467 4.585-.933 6.933l2.814 12.384c.386 1.716-.59 3.146-1.659 3.749-.074.041-.146.084-.22.127l-28.372 16.95c-1.438.86-3.27.568-4.369-.705l-23.817-27.54c-1.15-1.329-.965-3.051-.307-4.088z" fill="#000000" data-original="#000000" class=""></path><path d="m504.851 390.463-23.634-22.939c-7.182-7.241-18.479-8.99-27.546-4.237l-8.551 4.509-10.869-1.18c-9.668-1.659-19.392 2.876-24.313 11.401l-6.054 10.485c-.21.363-.396.738-.556 1.122-2.525 4.957-3.203 10.611-1.902 16.058l6.186 25.903c1.823 8.506 8.133 15.255 16.49 17.633l37.119 10.618c2.229.684 4.513 1.013 6.777 1.013 7.643-.001 15.072-3.749 19.492-10.271l20.426-30.118c6.422-9.433 5.13-22.049-3.065-29.997zm-13.477 18.757-20.437 30.135c-.986 1.454-2.694 1.724-3.871 1.354-.08-.025-.16-.05-.241-.072l-37.235-10.651c-1.478-.42-2.223-1.63-2.428-2.621-.021-.1-.043-.198-.066-.297l-6.216-26.03c0-.001 0-.001 0-.001-.263-1.098.054-1.97.365-2.508.161-.28.309-.566.44-.859l5.573-9.652c.856-1.483 2.46-1.912 3.67-1.679.269.052.539.093.812.122l14.261 1.548c1.979.217 3.981-.166 5.743-1.096l11.235-5.925c1.554-.815 3.189-.245 4.049.633.06.061.12.121.181.18l23.716 23.019c1.202 1.165 1.395 3.011.449 4.4z" fill="#000000" data-original="#000000" class=""></path><path d="m109.929 438.561c-6.11-6.145-15.704-7.624-23.408-3.584l-5.61 2.959-7.158-.777c-8.189-1.373-16.415 2.484-20.585 9.706l-4.473 7.747c-.2.346-.376.698-.53 1.057-2.104 4.192-2.662 8.96-1.563 13.552l4.563 19.106c1.558 7.216 6.917 12.941 14.013 14.961l27.402 7.839c1.888.576 3.82.854 5.738.854 6.498 0 12.814-3.188 16.573-8.732l15.086-22.249c5.461-8.021 4.363-18.751-2.605-25.507zm-11.509 53.438c-.08-.025-.161-.049-.242-.072l-27.466-7.823c-.021-.1-.043-.199-.066-.298l-4.585-19.202c.141-.246.271-.496.389-.749l3.993-6.971c.27.052.54.093.813.122l10.537 1.144c1.98.216 3.98-.166 5.744-1.096l8.249-4.351c.046.046.092.092.139.138l17.479 16.966z" fill="#000000" data-original="#000000" class=""></path><path d="m277.643 27.46c5.522 0 10-4.478 10-10s-4.478-10-10-10h-.007c-5.522 0-9.997 4.478-9.997 10s4.481 10 10.004 10z" fill="#000000" data-original="#000000" class=""></path><path d="m187.05 77.86c5.522 0 10-4.478 10-10s-4.478-10-10-10h-.007c-5.522 0-9.997 4.478-9.997 10s4.481 10 10.004 10z" fill="#000000" data-original="#000000" class=""></path><path d="m67.352 228.259c-5.522 0-9.996 4.478-9.996 10s4.481 10 10.004 10 10-4.478 10-10-4.478-10-10-10z" fill="#000000" data-original="#000000" class=""></path><path d="m30.16 348.259h-.007c-5.522 0-9.997 4.478-9.997 10s4.481 10 10.004 10 10-4.478 10-10-4.477-10-10-10z" fill="#000000" data-original="#000000" class=""></path><path d="m271.36 458.66h-.008c-5.522 0-9.996 4.478-9.996 10s4.481 10 10.004 10 10-4.478 10-10-4.477-10-10-10z" fill="#000000" data-original="#000000" class=""></path><path d="m424.953 303.86c-5.522 0-9.997 4.478-9.997 10s4.481 10 10.004 10 10-4.478 10-10-4.478-10-10-10z" fill="#000000" data-original="#000000" class=""></path><path d="m483.76 230.259c5.522 0 10-4.478 10-10s-4.478-10-10-10h-.007c-5.522 0-9.997 4.478-9.997 10s4.481 10 10.004 10z" fill="#000000" data-original="#000000" class=""></path><path d="m453.753 127.46c-5.522 0-9.996 4.478-9.996 10s4.481 10 10.004 10 10-4.478 10-10-4.478-10-10-10z" fill="#000000" data-original="#000000" class=""></path><path d="m362.56 443.059h-.008c-5.522 0-9.996 4.478-9.996 10s4.481 10 10.004 10 10-4.478 10-10-4.477-10-10-10z" fill="#000000" data-original="#000000" class=""></path><path d="m241.953 305.991-10.801 18.706c-8.877 15.377-3.59 35.109 11.787 43.986 5.059 2.921 10.585 4.308 16.045 4.308 11.136 0 21.983-5.776 27.94-16.094l10.8-18.707c8.878-15.375 3.591-35.107-11.786-43.985-7.426-4.288-16.101-5.422-24.427-3.191-8.325 2.231-15.27 7.549-19.558 14.977zm6.52 28.706 10.801-18.706c1.617-2.801 4.25-4.811 7.415-5.658 1.065-.286 2.146-.428 3.216-.428 2.106 0 4.177.548 6.034 1.62 5.826 3.364 7.829 10.84 4.466 16.665l-10.8 18.707c-3.364 5.825-10.841 7.829-16.666 4.466s-7.83-10.84-4.466-16.666z" fill="#000000" data-original="#000000" class=""></path><path d="m331.039 244.843c17.755 0 32.2-14.445 32.2-32.2s-14.445-32.2-32.2-32.2-32.2 14.445-32.2 32.2 14.445 32.2 32.2 32.2zm0-44.4c6.728 0 12.2 5.473 12.2 12.2s-5.473 12.2-12.2 12.2-12.2-5.473-12.2-12.2 5.472-12.2 12.2-12.2z" fill="#000000" data-original="#000000" class=""></path><path d="m210.048 208.789c-19.244 0-34.9 15.656-34.9 34.899 0 19.244 15.656 34.9 34.9 34.9 19.243 0 34.899-15.656 34.899-34.9 0-19.243-15.656-34.899-34.899-34.899zm0 49.799c-8.216 0-14.9-6.685-14.9-14.9s6.685-14.899 14.9-14.899 14.899 6.684 14.899 14.899-6.683 14.9-14.899 14.9z" fill="#000000" data-original="#000000" class=""></path><path d="m185.233 338.843c-5.522 0-9.996 4.478-9.996 10s4.481 10 10.004 10 10-4.478 10-10-4.478-10-10-10z" fill="#000000" data-original="#000000" class=""></path><path d="m273.241 186.843c0-5.522-4.478-10-10-10h-.007c-5.522 0-9.997 4.478-9.997 10s4.481 10 10.004 10 10-4.477 10-10z" fill="#000000" data-original="#000000" class=""></path><path d="m181.671 176.588c5.522 0 10-4.478 10-10s-4.478-10-10-10h-.007c-5.522 0-9.996 4.478-9.996 10s4.48 10 10.003 10z" fill="#000000" data-original="#000000" class=""></path></g></g></g></svg>